<svg width="20" height="20" viewBox="0 0 20 20" fill="none" xmlns="http://www.w3.org/2000/svg">
<path opacity="0.8" d="M13.4338 7.27369L7.07148 13.2943L6.90737 13.4496L6.68235 13.429L2.21115 13.0207L13.4338 7.27369ZM13.4338 7.27369L8.96299 13.2634L8.8409 13.4269L8.86815 13.6292L9.44838 17.9362L9.52012 18.4688L10.0461 18.3589C10.3422 18.2971 10.5705 18.1818 10.7566 18.0177C10.9213 17.8725 11.0358 17.7013 11.1192 17.5768C11.122 17.5726 11.1247 17.5686 11.1274 17.5645L12.5404 15.5435L17.0658 17.556L17.0939 17.5685L17.1233 17.5774C17.6229 17.7296 18.1561 17.7518 18.5784 17.4467C19.001 17.1412 19.1521 16.6238 19.164 16.0799L19.164 16.0799L19.1641 16.0728L19.2668 2.59436L13.4338 7.27369ZM1.90205 10.7384L1.90205 10.7384L17.0476 1.11168L17.0513 1.10932L17.0513 1.10934C17.5058 0.826036 18.0824 0.724851 18.5712 1.02613C19.0565 1.32516 19.2729 1.90908 19.2668 2.59364L1.90205 10.7384ZM1.90205 10.7384L1.89993 10.7397M1.90205 10.7384L1.89993 10.7397M1.89993 10.7397C1.61269 10.9243 1.37783 11.1235 1.21473 11.3366M1.89993 10.7397L1.21473 11.3366M1.21473 11.3366C1.05426 11.5463 0.93008 11.8155 0.965161 12.1152M1.21473 11.3366L0.965161 12.1152M0.965161 12.1152C1.00227 12.4323 1.20171 12.6584 1.43137 12.7953M0.965161 12.1152L1.43137 12.7953M1.43137 12.7953C1.65252 12.9273 1.92497 12.9948 2.2108 13.0207L1.43137 12.7953Z" stroke="#8AC1D9"/>
</svg>
