<svg width="82" height="52" viewBox="0 0 82 52" fill="none" xmlns="http://www.w3.org/2000/svg">
<path d="M44.7404 12.4086L44.7409 12.4097L55.5485 35.9009C55.7067 36.2568 55.7774 36.5214 55.7984 36.7054C55.8086 36.7952 55.8059 36.8564 55.8007 36.894C55.7982 36.9126 55.7951 36.925 55.7928 36.9325C55.7915 36.937 55.7903 36.94 55.7896 36.9417C55.7857 36.9451 55.7704 36.9575 55.7347 36.9737C55.6565 37.0092 55.5046 37.0518 55.2467 37.0619L46.1869 36.032L45.1903 35.9187L45.08 36.9156L44.6043 41.2157L41.5039 36.1382L44.0987 17.8823C44.0989 17.8811 44.0991 17.8798 44.0993 17.8785C44.1449 17.5688 44.1443 17.1382 43.8964 16.7576C43.5908 16.2885 43.0665 16.1296 42.6044 16.226C42.2094 16.3084 41.9133 16.5537 41.7195 16.7842C41.5161 17.0262 41.3611 17.325 41.2594 17.657L35.2167 35.9019L28.7036 37.5675L28.7028 37.5677C28.474 37.6264 28.3256 37.6276 28.2453 37.6179C28.2458 37.5925 28.2482 37.5592 28.2548 37.5168C28.2812 37.3458 28.3681 37.0799 28.5768 36.7212C28.5772 36.7204 28.5777 36.7195 28.5782 36.7187L43.4709 11.4832C43.5672 11.325 43.6529 11.2657 43.6917 11.2465C43.72 11.2324 43.7437 11.2272 43.7896 11.2389C43.9155 11.271 44.3189 11.4895 44.7404 12.4086ZM43.2506 18.0711C43.2547 18.0661 43.2547 18.0669 43.25 18.0717L43.2506 18.0711ZM42.1232 17.5598C42.1234 17.5596 42.1234 17.5635 42.1226 17.5719C42.1225 17.5642 42.1229 17.56 42.1232 17.5598ZM28.2511 37.6846C28.251 37.6846 28.2508 37.6841 28.2505 37.6828L28.2511 37.6846Z" stroke="#8AC1D9" stroke-width="2"/>
<path d="M23.8965 38H20.4863L6.44141 16.4316H6.30078C6.48828 18.9629 6.58203 21.2832 6.58203 23.3926V38H3.82227V12.3008H7.19727L21.207 33.7812H21.3477C21.3242 33.4648 21.2715 32.4512 21.1895 30.7402C21.1074 29.0176 21.0781 27.7871 21.1016 27.0488V12.3008H23.8965V38ZM78.4238 12.3008V28.9297C78.4238 31.8594 77.5391 34.1621 75.7695 35.8379C74 37.5137 71.5684 38.3516 68.4746 38.3516C65.3809 38.3516 62.9844 37.5078 61.2852 35.8203C59.5977 34.1328 58.7539 31.8125 58.7539 28.8594V12.3008H61.7422V29.0703C61.7422 31.2148 62.3281 32.8613 63.5 34.0098C64.6719 35.1582 66.3945 35.7324 68.668 35.7324C70.8359 35.7324 72.5059 35.1582 73.6777 34.0098C74.8496 32.8496 75.4355 31.1914 75.4355 29.0352V12.3008H78.4238Z" fill="#E0E0E0"/>
<path d="M48.45 42.2402C48.45 42.4915 48.3589 42.6875 48.1766 42.8281C47.9943 42.9688 47.7469 43.0391 47.4344 43.0391C47.0958 43.0391 46.8354 42.9954 46.6531 42.9082V42.5879C46.7703 42.6374 46.8979 42.6764 47.0359 42.7051C47.174 42.7337 47.3107 42.748 47.4461 42.748C47.6674 42.748 47.8341 42.7064 47.9461 42.623C48.0581 42.5384 48.1141 42.4212 48.1141 42.2715C48.1141 42.1725 48.0939 42.0918 48.0535 42.0293C48.0145 41.9655 47.948 41.9069 47.8543 41.8535C47.7618 41.8001 47.6206 41.7396 47.4305 41.6719C47.1648 41.5768 46.9747 41.4642 46.8602 41.334C46.7469 41.2038 46.6902 41.0339 46.6902 40.8242C46.6902 40.6042 46.7729 40.429 46.9383 40.2988C47.1036 40.1686 47.3224 40.1035 47.5945 40.1035C47.8784 40.1035 48.1395 40.1556 48.3777 40.2598L48.2742 40.5488C48.0385 40.4499 47.8094 40.4004 47.5867 40.4004C47.4109 40.4004 47.2736 40.4382 47.1746 40.5137C47.0757 40.5892 47.0262 40.694 47.0262 40.8281C47.0262 40.9271 47.0444 41.0085 47.0809 41.0723C47.1173 41.1348 47.1785 41.1927 47.2645 41.2461C47.3517 41.2982 47.4845 41.3561 47.6629 41.4199C47.9624 41.5267 48.1681 41.6413 48.2801 41.7637C48.3934 41.8861 48.45 42.0449 48.45 42.2402ZM51.4566 40.4004C51.1428 40.4004 50.8948 40.5052 50.7125 40.7148C50.5315 40.9232 50.441 41.209 50.441 41.5723C50.441 41.946 50.5283 42.235 50.7027 42.4395C50.8785 42.6426 51.1285 42.7441 51.4527 42.7441C51.652 42.7441 51.8792 42.7083 52.1344 42.6367V42.9277C51.9365 43.002 51.6923 43.0391 51.402 43.0391C50.9814 43.0391 50.6565 42.9115 50.4273 42.6562C50.1995 42.401 50.0855 42.0384 50.0855 41.5684C50.0855 41.2741 50.1402 41.0163 50.2496 40.7949C50.3603 40.5736 50.5191 40.403 50.7262 40.2832C50.9345 40.1634 51.1793 40.1035 51.4605 40.1035C51.76 40.1035 52.0217 40.1582 52.2457 40.2676L52.1051 40.5527C51.8889 40.4512 51.6728 40.4004 51.4566 40.4004ZM56.1254 43H55.7934V41.6562H54.2895V43H53.9574V40.1445H54.2895V41.3594H55.7934V40.1445H56.1254V43ZM59.7023 43H58.1105V40.1445H59.7023V40.4395H58.4426V41.3594H59.6262V41.6523H58.4426V42.7031H59.7023V43ZM63.8164 41.5449C63.8164 42.0163 63.6882 42.377 63.4316 42.627C63.1764 42.8757 62.8086 43 62.3281 43H61.5371V40.1445H62.4121C62.8561 40.1445 63.2012 40.2676 63.4473 40.5137C63.6934 40.7598 63.8164 41.1035 63.8164 41.5449ZM63.4648 41.5566C63.4648 41.1842 63.3711 40.9036 63.1836 40.7148C62.9974 40.526 62.7201 40.4316 62.3516 40.4316H61.8691V42.7129H62.2734C62.6693 42.7129 62.9668 42.6159 63.166 42.4219C63.3652 42.2266 63.4648 41.9382 63.4648 41.5566ZM67.8113 40.1445V41.9922C67.8113 42.3177 67.713 42.5736 67.5164 42.7598C67.3198 42.946 67.0496 43.0391 66.7059 43.0391C66.3621 43.0391 66.0958 42.9453 65.907 42.7578C65.7195 42.5703 65.6258 42.3125 65.6258 41.9844V40.1445H65.9578V42.0078C65.9578 42.2461 66.0229 42.429 66.1531 42.5566C66.2833 42.6842 66.4747 42.748 66.7273 42.748C66.9682 42.748 67.1538 42.6842 67.284 42.5566C67.4142 42.4277 67.4793 42.2435 67.4793 42.0039V40.1445H67.8113ZM69.7691 43V40.1445H70.1012V42.6992H71.3609V43H69.7691ZM74.6391 43H73.0473V40.1445H74.6391V40.4395H73.3793V41.3594H74.5629V41.6523H73.3793V42.7031H74.6391V43ZM76.8059 41.8125V43H76.4738V40.1445H77.257C77.6073 40.1445 77.8658 40.2116 78.0324 40.3457C78.2004 40.4798 78.2844 40.6816 78.2844 40.9512C78.2844 41.3288 78.093 41.584 77.7102 41.7168L78.4855 43H78.093L77.4016 41.8125H76.8059ZM76.8059 41.5273H77.2609C77.4953 41.5273 77.6672 41.4811 77.7766 41.3887C77.8859 41.2949 77.9406 41.1549 77.9406 40.9688C77.9406 40.7799 77.8846 40.6439 77.7727 40.5605C77.662 40.4772 77.4836 40.4355 77.2375 40.4355H76.8059V41.5273Z" fill="#E0E0E0"/>
</svg>
