<svg width="84" height="69" viewBox="0 0 84 69" fill="none" xmlns="http://www.w3.org/2000/svg">
<g filter="url(#filter0_i_3_8)">
<path d="M1.88291 6.03037L1.8832 6.03178L13.8535 64.2319C13.8541 64.2343 13.8546 64.2366 13.8551 64.2389C14.2797 66.1582 15.0075 67.0735 15.7637 67.4208C16.5136 67.7652 17.6432 67.7129 19.268 66.8561L38.5552 53.2702L39.2293 52.7953L39.8239 53.3666L48.9906 62.174L48.9976 62.1807L49.0045 62.1876C49.5275 62.71 49.9041 63.0785 50.3592 63.3435C50.5616 63.4614 50.7894 63.5636 51.0631 63.6392L49.9875 46.1196L15.0641 14.5907C15.0632 14.5898 15.0622 14.589 15.0613 14.5882C14.6168 14.1916 14.1884 13.6488 14.1713 12.9888C14.15 12.1685 14.74 11.6889 15.2713 11.51C15.7756 11.3402 16.359 11.3631 16.9095 11.4917C17.4752 11.6238 18.0841 11.8847 18.6845 12.2835L61.9727 39.5786L80.5309 34.1155L80.5316 34.1153C81.4818 33.8362 82.1086 33.4923 82.4701 33.1668C82.8171 32.8544 82.867 32.6168 82.8546 32.4597C82.8394 32.2679 82.7088 31.9192 82.1851 31.4577C81.6683 31.0023 80.8461 30.5097 79.6552 30.0394C79.6544 30.039 79.6536 30.0387 79.6528 30.0384L5.92222 1.35899C5.92084 1.35847 5.91946 1.35795 5.91808 1.35743C4.43984 0.798606 3.27304 1.02005 2.59075 1.65254C1.90183 2.29117 1.38814 3.64226 1.88291 6.03037Z" stroke="#8AC1D9" stroke-width="2"/>
</g>
<defs>
<filter id="filter0_i_3_8" x="-1.31279" y="0.03862" width="85.1691" height="70.5817" filterUnits="userSpaceOnUse" color-interpolation-filters="sRGB">
<feFlood flood-opacity="0" result="BackgroundImageFix"/>
<feBlend mode="normal" in="SourceGraphic" in2="BackgroundImageFix" result="shape"/>
<feColorMatrix in="SourceAlpha" type="matrix" values="0 0 0 0 0 0 0 0 0 0 0 0 0 0 0 0 0 0 127 0" result="hardAlpha"/>
<feOffset dx="-2" dy="2"/>
<feGaussianBlur stdDeviation="1"/>
<feComposite in2="hardAlpha" operator="arithmetic" k2="-1" k3="1"/>
<feColorMatrix type="matrix" values="0 0 0 0 0 0 0 0 0 0 0 0 0 0 0 0 0 0 0.25 0"/>
<feBlend mode="normal" in2="shape" result="effect1_innerShadow_3_8"/>
</filter>
</defs>
</svg>
